# Blender 4.4.3
# www.blender.org
o road_barrier_collision
v -1.700000 0.000000 1.752597
v -0.063622 4.905693 1.610012
v -1.700000 0.000000 -1.752597
v -0.063622 4.905693 -1.610012
v 1.700000 0.000000 1.752597
v 0.063622 4.905693 1.610012
v 1.700000 0.000000 -1.752597
v 0.063622 4.905693 -1.610012
v -0.151381 4.642601 3.600000
v -0.151381 4.642601 -3.600000
v 0.151381 4.642601 -3.600000
v 0.151381 4.642601 3.600000
v -0.925690 2.371956 -3.600000
v 0.925690 2.371956 -3.600000
v 0.925690 2.371956 3.600000
v -0.925690 2.371956 3.600000
vn -0.9486 0.3164 -0.0000
vn -0.0000 0.9914 -0.1311
vn 0.9486 0.3164 -0.0000
vn -0.0000 0.9914 0.1311
vn -0.0000 -1.0000 -0.0000
vn -0.0000 1.0000 -0.0000
vn -0.0000 -0.0000 1.0000
vn 0.9465 0.3228 -0.0000
vn -0.0000 -0.0000 -1.0000
vn -0.9465 0.3228 -0.0000
vn -0.9506 0.3103 -0.0000
vn -0.0000 -0.6145 -0.7889
vn 0.9506 0.3103 -0.0000
vn -0.0000 -0.6145 0.7889
vt 0.611593 0.000000
vt 0.625000 0.000000
vt 0.625000 0.250000
vt 0.611593 0.250000
vt 0.625000 0.500000
vt 0.611593 0.500000
vt 0.625000 0.750000
vt 0.611593 0.750000
vt 0.625000 1.000000
vt 0.611593 1.000000
vt 0.125000 0.500000
vt 0.375000 0.500000
vt 0.375000 0.750000
vt 0.125000 0.750000
vt 0.875000 0.500000
vt 0.875000 0.750000
vt 0.493296 0.750000
vt 0.493296 1.000000
vt 0.493296 0.500000
vt 0.493296 0.250000
vt 0.493296 0.000000
vt 0.375000 0.000000
vt 0.375000 0.250000
vt 0.375000 1.000000
s 0
f 9/1/1 2/2/1 4/3/1 10/4/1
f 10/4/2 4/3/2 8/5/2 11/6/2
f 11/6/3 8/5/3 6/7/3 12/8/3
f 12/8/4 6/7/4 2/9/4 9/10/4
f 3/11/5 7/12/5 5/13/5 1/14/5
f 8/5/6 4/15/6 2/16/6 6/7/6
f 15/17/7 12/8/7 9/10/7 16/18/7
f 14/19/8 11/6/8 12/8/8 15/17/8
f 13/20/9 10/4/9 11/6/9 14/19/9
f 16/21/10 9/1/10 10/4/10 13/20/10
f 1/22/11 16/21/11 13/20/11 3/23/11
f 3/23/12 13/20/12 14/19/12 7/12/12
f 7/12/13 14/19/13 15/17/13 5/13/13
f 5/13/14 15/17/14 16/18/14 1/24/14
